<svg width="44" height="104" viewBox="0 0 44 104" fill="none" xmlns="http://www.w3.org/2000/svg">
<rect x="0.499069" y="0.5" width="42.9991" height="103" fill="#505050" stroke="#F5F5F5"/>
<path d="M43.9981 8H-0.000930786" stroke="#F5F5F5"/>
<path d="M43.9981 4H-0.000930786" stroke="#F5F5F5"/>
<path d="M43.9981 11H-0.000930786" stroke="#F5F5F5"/>
<path d="M43.9981 15H-0.000930786" stroke="#F5F5F5"/>
<path d="M43.9981 18H-0.000930786" stroke="#F5F5F5"/>
<path d="M43.9981 20H-0.000930786" stroke="#F5F5F5"/>
<path d="M43.9981 23H-0.000930786" stroke="#F5F5F5"/>
<path d="M43.9981 26H-0.000930786" stroke="#F5F5F5"/>
<path d="M43.9981 29H-0.000930786" stroke="#F5F5F5"/>
<path d="M43.9981 31H-0.000930786" stroke="#F5F5F5"/>
<path d="M43.9981 34H-0.000930786" stroke="#F5F5F5"/>
<path d="M43.9981 36H-0.000930786" stroke="#F5F5F5"/>
<path d="M43.9981 38H-0.000930786" stroke="#F5F5F5"/>
<path d="M43.9981 40H-0.000930786" stroke="#F5F5F5"/>
<path d="M43.9981 42H-0.000930786" stroke="#F5F5F5"/>
<path d="M43.9981 44H-0.000930786" stroke="#F5F5F5"/>
<path d="M43.9981 46H-0.000930786" stroke="#F5F5F5"/>
<path d="M43.9981 48H-0.000930786" stroke="#F5F5F5"/>
<path d="M43.9981 49H-0.000930786" stroke="#F5F5F5"/>
<path d="M43.9981 51H-0.000930786" stroke="#F5F5F5"/>
<path d="M43.9981 52H-0.000930786" stroke="#F5F5F5"/>
<path d="M43.9981 54H-0.000930786" stroke="#F5F5F5"/>
<path d="M41.9991 56H-0.000930786" stroke="#F5F5F5"/>
<path d="M41.9991 57H-0.000930786" stroke="#F5F5F5"/>
<path d="M41.9991 59H-0.000930786" stroke="#F5F5F5"/>
<path d="M41.9991 61H-0.000930786" stroke="#F5F5F5"/>
<path d="M43.9981 63H-0.000930786" stroke="#F5F5F5"/>
<path d="M43.9981 65H-0.000930786" stroke="#F5F5F5"/>
<path d="M43.9981 67H-0.000930786" stroke="#F5F5F5"/>
<path d="M43.9981 69H-0.000930786" stroke="#F5F5F5"/>
<path d="M43.9981 71H-0.000930786" stroke="#F5F5F5"/>
<path d="M43.9981 74H-0.000930786" stroke="#F5F5F5"/>
<path d="M43.9981 76H-0.000930786" stroke="#F5F5F5"/>
<path d="M43.9981 79H-0.000930786" stroke="#F5F5F5"/>
<path d="M43.9981 82H-0.000930786" stroke="#F5F5F5"/>
<path d="M43.9981 85H-0.000930786" stroke="#F5F5F5"/>
<path d="M43.9981 88H-0.000930786" stroke="#F5F5F5"/>
<path d="M43.9981 91H-0.000930786" stroke="#F5F5F5"/>
<path d="M43.9981 94H-0.000930786" stroke="#F5F5F5"/>
<path d="M43.9981 97H-0.000930786" stroke="#F5F5F5"/>
<path d="M43.9981 101H-0.000930786" stroke="#F5F5F5"/>
<path d="M43.9991 56H41.9991V62H43.9991" stroke="#F5F5F5"/>
</svg>
