<svg width="44" height="104" viewBox="0 0 44 104" fill="none" xmlns="http://www.w3.org/2000/svg">
<rect x="0.499084" y="0.5" width="42.9991" height="103" fill="#505050" stroke="#F5F5F5"/>
<path d="M43.7452 2.09766H0.344788" stroke="#F5F5F5"/>
<path d="M43.7452 15.5664H0.344788" stroke="#F5F5F5"/>
<path d="M43.7452 29.0312H0.344788" stroke="#F5F5F5"/>
<path d="M43.7452 42.5H0.344788" stroke="#F5F5F5"/>
<path d="M43.7452 70.9375H0.344788" stroke="#F5F5F5"/>
<path d="M43.7452 86.5H0.344788" stroke="#F5F5F5"/>
<path d="M42.2487 55.9766H0.344788" stroke="#F5F5F5"/>
<path d="M43.7452 3.89453H0.344788" stroke="#F5F5F5"/>
<path d="M43.7452 17.3633H0.344788" stroke="#F5F5F5"/>
<path d="M43.7452 30.8281H0.344788" stroke="#F5F5F5"/>
<path d="M43.7452 44.3008H0.344788" stroke="#F5F5F5"/>
<path d="M43.7452 72.7383H0.344788" stroke="#F5F5F5"/>
<path d="M43.7452 88.2969H0.344788" stroke="#F5F5F5"/>
<path d="M42.2487 57.7695H0.344788" stroke="#F5F5F5"/>
<path d="M43.7452 5.98438H0.344788" stroke="#F5F5F5"/>
<path d="M43.7452 19.4609H0.344788" stroke="#F5F5F5"/>
<path d="M43.7452 32.9258H0.344788" stroke="#F5F5F5"/>
<path d="M43.7452 46.3906H0.344788" stroke="#F5F5F5"/>
<path d="M43.7452 74.8242H0.344788" stroke="#F5F5F5"/>
<path d="M43.7452 90.3945H0.344788" stroke="#F5F5F5"/>
<path d="M42.2487 59.8594H0.344788" stroke="#F5F5F5"/>
<path d="M43.7452 7.77734H0.344788" stroke="#F5F5F5"/>
<path d="M43.7452 21.2539H0.344788" stroke="#F5F5F5"/>
<path d="M43.7452 34.7227H0.344788" stroke="#F5F5F5"/>
<path d="M43.7452 48.1875H0.344788" stroke="#F5F5F5"/>
<path d="M43.7452 76.625H0.344788" stroke="#F5F5F5"/>
<path d="M43.7452 92.1836H0.344788" stroke="#F5F5F5"/>
<path d="M42.2487 61.6562H0.344788" stroke="#F5F5F5"/>
<path d="M43.7452 9.875H0.344788" stroke="#F5F5F5"/>
<path d="M43.7452 23.3438H0.344788" stroke="#F5F5F5"/>
<path d="M43.7452 36.8203H0.344788" stroke="#F5F5F5"/>
<path d="M43.7452 50.2852H0.344788" stroke="#F5F5F5"/>
<path d="M43.7453 78.7188H0.344879" stroke="#F5F5F5"/>
<path d="M43.7452 94.2852H0.344788" stroke="#F5F5F5"/>
<path d="M43.7452 63.7539H0.344788" stroke="#F5F5F5"/>
<path d="M43.7452 11.668H0.344788" stroke="#F5F5F5"/>
<path d="M43.7452 25.1367H0.344788" stroke="#F5F5F5"/>
<path d="M43.7452 38.6133H0.344788" stroke="#F5F5F5"/>
<path d="M43.7452 52.082H0.344788" stroke="#F5F5F5"/>
<path d="M43.7452 80.5156H0.344788" stroke="#F5F5F5"/>
<path d="M43.7453 96.0781H0.344879" stroke="#F5F5F5"/>
<path d="M43.7452 99.9766H0.344788" stroke="#F5F5F5"/>
<path d="M43.7452 65.5469H0.344788" stroke="#F5F5F5"/>
<path d="M43.7452 13.7695H0.344788" stroke="#F5F5F5"/>
<path d="M43.7452 27.2383H0.344788" stroke="#F5F5F5"/>
<path d="M43.7452 40.707H0.344788" stroke="#F5F5F5"/>
<path d="M43.7452 69.1367H0.344788" stroke="#F5F5F5"/>
<path d="M43.7452 84.7031H0.344788" stroke="#F5F5F5"/>
<path d="M43.7452 54.1797H0.344788" stroke="#F5F5F5"/>
<path d="M43.7452 82.6133H0.344788" stroke="#F5F5F5"/>
<path d="M43.7452 98.1758H0.344788" stroke="#F5F5F5"/>
<path d="M43.7452 102.062H0.344788" stroke="#F5F5F5"/>
<path d="M43.7452 67.6484H0.344788" stroke="#F5F5F5"/>
<path d="M43.9991 56H41.9991V62H43.9991" stroke="#F5F5F5"/>
</svg>
