<svg width="44" height="104" viewBox="0 0 44 104" fill="none" xmlns="http://www.w3.org/2000/svg">
<rect x="0.499084" y="0.5" width="42.9991" height="103" fill="#505050" stroke="#F5F5F5"/>
<path d="M2.75787 104L2.75788 0" stroke="#F5F5F5"/>
<path d="M4.92486 104L4.92487 0" stroke="#F5F5F5"/>
<path d="M7.09185 104L7.09186 0" stroke="#F5F5F5"/>
<path d="M9.25885 104L9.25885 0" stroke="#F5F5F5"/>
<path d="M11.4258 104L11.4258 0" stroke="#F5F5F5"/>
<path d="M13.5928 104L13.5928 0" stroke="#F5F5F5"/>
<path d="M15.7598 104L15.7598 0" stroke="#F5F5F5"/>
<path d="M17.9268 104L17.9268 0" stroke="#F5F5F5"/>
<path d="M20.0938 104L20.0938 0" stroke="#F5F5F5"/>
<path d="M22.2608 104L22.2608 0" stroke="#F5F5F5"/>
<path d="M24.4278 104L24.4278 0" stroke="#F5F5F5"/>
<path d="M26.5948 104L26.5948 0" stroke="#F5F5F5"/>
<path d="M28.7618 104L28.7618 0" stroke="#F5F5F5"/>
<path d="M30.9288 104L30.9288 52L30.9288 0" stroke="#F5F5F5"/>
<path d="M33.0958 104L33.0958 0" stroke="#F5F5F5"/>
<path d="M35.2628 104L35.2628 0" stroke="#F5F5F5"/>
<path d="M37.4297 104L37.4298 0" stroke="#F5F5F5"/>
<path d="M39.5967 104L39.5967 0" stroke="#F5F5F5"/>
<path d="M41.7637 104L41.7637 0" stroke="#F5F5F5"/>
<path d="M43.9991 56H41.9991V62H43.9991" stroke="#F5F5F5"/>
</svg>
