<svg width="163" height="34" viewBox="0 0 163 34" fill="none" xmlns="http://www.w3.org/2000/svg">
<path d="M107.339 9.99701C94.3099 8.17081 94.1796 9.92948 94.1699 10.3002C94.0915 11.9516 96.1407 12.0218 97.4969 12.0683C97.7549 12.0772 97.9878 12.0852 98.1762 12.103C113.039 13.5061 108.971 26.1627 108.971 26.1627C106.237 37.3901 83.9821 33.2567 83.9821 33.2567V23.7756C97.0109 25.7865 98.0609 24.3875 98.1446 23.7756C98.3628 22.1837 94.8548 22.0486 94.8548 22.0486C79.3898 22.0486 82.4106 9.13146 82.4106 9.13146C83.4235 0.266438 92.0975 -0.105696 96.0173 0.015592C98.9969 0.109314 107.339 0.926629 107.339 0.926629V9.99701Z" fill="white"/>
<path d="M51.1863 0.318523H40.2532V33.2551H51.1863V0.318523Z" fill="white"/>
<path d="M0 33.2578V0.321293H16.1512L18.7603 12.8842L20.3743 0.321293H37.5191V33.2578H25.8408V16.7902L23.1082 33.2578H14.1625L10.9331 16.7902V33.2578H0Z" fill="white"/>
<path d="M151.819 23.0255V0.318523H140.885V33.2564H163V23.0255H151.819Z" fill="white"/>
<path d="M54.6643 33.255V0.318523H65.8458V12.8814H67.9347L70.8155 0.318523H82.4128L76.282 16.7875L82.4128 33.255H72.0576L67.5312 22.776H65.5974V33.255H54.6643Z" fill="white"/>
<path fill-rule="evenodd" clip-rule="evenodd" d="M116.535 0.318523H133.183L139.2 33.255H128.743L128.052 29.2635H121.061L120.369 33.255H109.759L116.535 0.318523ZM123.724 9.3007L122.336 20.7789H126.971L125.46 9.3007H123.724Z" fill="white"/>
</svg>
