<svg width="150" height="32" viewBox="0 0 150 32" fill="none" xmlns="http://www.w3.org/2000/svg">
<path d="M98.778 9.61493C86.7883 7.94986 86.6683 9.55335 86.6595 9.89139C86.5873 11.397 88.4731 11.4611 89.7211 11.5035C89.9585 11.5115 90.1728 11.5188 90.3462 11.5351C104.023 12.8144 100.28 24.3543 100.28 24.3543C97.7638 34.591 77.2842 30.8223 77.2842 30.8223V22.1777C89.2739 24.0112 90.2401 22.7357 90.3171 22.1777C90.5179 20.7263 87.2897 20.6031 87.2897 20.6031C73.0581 20.6031 75.838 8.82574 75.838 8.82574C76.7701 0.742928 84.7523 0.40363 88.3595 0.514216C91.1015 0.599669 98.778 1.34487 98.778 1.34487V9.61493Z" fill="#111111"/>
<path d="M47.104 0.790418H37.0429V30.8208H47.104V0.790418Z" fill="#111111"/>
<path d="M0 30.8233V0.792943H14.8631L17.264 12.2474L18.7493 0.792943H34.5268V30.8233H23.7799V15.8087L21.2652 30.8233H13.033L10.0611 15.8087V30.8233H0Z" fill="#111111"/>
<path d="M139.71 21.4938V0.790418H129.649V30.822H150V21.4938H139.71Z" fill="#111111"/>
<path d="M50.3046 30.8207V0.790418H60.5943V12.2448H62.5166L65.1676 0.790418H75.84L70.1982 15.8062L75.84 30.8207H66.3106L62.1452 21.2664H60.3657V30.8207H50.3046Z" fill="#111111"/>
<path fill-rule="evenodd" clip-rule="evenodd" d="M107.241 0.790418H122.561L128.098 30.8207H118.475L117.84 27.1815H111.406L110.769 30.8207H101.005L107.241 0.790418ZM113.856 8.98005L112.579 19.4455H116.844L115.454 8.98005H113.856Z" fill="#111111"/>
</svg>
